<mxfile host="app.diagrams.net" modified="2023-06-26T17:22:50.073Z" agent="Mozilla/5.0 (Macintosh; Intel Mac OS X 10_15_7) AppleWebKit/537.36 (KHTML, like Gecko) Chrome/113.0.0.0 Safari/537.36" etag="pWPW-Y60NiRIAaG4bVAd" version="21.5.0" type="github">
  <diagram id="C5RBs43oDa-KdzZeNtuy" name="Page-1">
    <mxGraphModel dx="1242" dy="710" grid="1" gridSize="10" guides="1" tooltips="1" connect="1" arrows="1" fold="1" page="1" pageScale="1" pageWidth="827" pageHeight="1169" math="0" shadow="0">
      <root>
        <mxCell id="WIyWlLk6GJQsqaUBKTNV-0" />
        <mxCell id="WIyWlLk6GJQsqaUBKTNV-1" parent="WIyWlLk6GJQsqaUBKTNV-0" />
        <mxCell id="UX_ttumUYhpTHQOnJO9W-59" value="" style="edgeStyle=orthogonalEdgeStyle;rounded=0;orthogonalLoop=1;jettySize=auto;html=1;entryX=1;entryY=0;entryDx=0;entryDy=0;curved=1;" edge="1" parent="WIyWlLk6GJQsqaUBKTNV-1" source="UX_ttumUYhpTHQOnJO9W-52" target="UX_ttumUYhpTHQOnJO9W-22">
          <mxGeometry relative="1" as="geometry">
            <mxPoint x="476.5" y="660" as="targetPoint" />
          </mxGeometry>
        </mxCell>
        <mxCell id="UX_ttumUYhpTHQOnJO9W-60" value="NO" style="edgeLabel;html=1;align=center;verticalAlign=middle;resizable=0;points=[];" vertex="1" connectable="0" parent="UX_ttumUYhpTHQOnJO9W-59">
          <mxGeometry x="-0.0932" y="-1" relative="1" as="geometry">
            <mxPoint x="1" as="offset" />
          </mxGeometry>
        </mxCell>
        <mxCell id="WIyWlLk6GJQsqaUBKTNV-2" value="" style="rounded=0;html=1;jettySize=auto;orthogonalLoop=1;fontSize=11;endArrow=block;endFill=0;endSize=8;strokeWidth=1;shadow=0;labelBackgroundColor=none;edgeStyle=orthogonalEdgeStyle;" parent="WIyWlLk6GJQsqaUBKTNV-1" target="WIyWlLk6GJQsqaUBKTNV-6" edge="1">
          <mxGeometry relative="1" as="geometry">
            <mxPoint x="245" y="120" as="sourcePoint" />
          </mxGeometry>
        </mxCell>
        <mxCell id="WIyWlLk6GJQsqaUBKTNV-3" value="Create Slice" style="rounded=1;whiteSpace=wrap;html=1;fontSize=12;glass=0;strokeWidth=1;shadow=0;" parent="WIyWlLk6GJQsqaUBKTNV-1" vertex="1">
          <mxGeometry x="184" y="80" width="120" height="40" as="geometry" />
        </mxCell>
        <mxCell id="WIyWlLk6GJQsqaUBKTNV-4" value="Yes" style="rounded=0;html=1;jettySize=auto;orthogonalLoop=1;fontSize=11;endArrow=block;endFill=0;endSize=8;strokeWidth=1;shadow=0;labelBackgroundColor=none;edgeStyle=orthogonalEdgeStyle;labelPosition=left;verticalLabelPosition=middle;align=right;verticalAlign=middle;" parent="WIyWlLk6GJQsqaUBKTNV-1" source="UX_ttumUYhpTHQOnJO9W-13" target="WIyWlLk6GJQsqaUBKTNV-10" edge="1">
          <mxGeometry y="20" relative="1" as="geometry">
            <mxPoint as="offset" />
            <mxPoint x="247" y="250" as="sourcePoint" />
          </mxGeometry>
        </mxCell>
        <mxCell id="UX_ttumUYhpTHQOnJO9W-9" value="" style="edgeStyle=orthogonalEdgeStyle;rounded=0;orthogonalLoop=1;jettySize=auto;html=1;" edge="1" parent="WIyWlLk6GJQsqaUBKTNV-1" source="WIyWlLk6GJQsqaUBKTNV-6" target="UX_ttumUYhpTHQOnJO9W-7">
          <mxGeometry relative="1" as="geometry" />
        </mxCell>
        <mxCell id="WIyWlLk6GJQsqaUBKTNV-6" value="Is Feasible" style="rhombus;whiteSpace=wrap;html=1;shadow=0;fontFamily=Helvetica;fontSize=12;align=center;strokeWidth=1;spacing=6;spacingTop=-4;fillColor=#f5f5f5;fontColor=#333333;strokeColor=#666666;" parent="WIyWlLk6GJQsqaUBKTNV-1" vertex="1">
          <mxGeometry x="196" y="170" width="100" height="80" as="geometry" />
        </mxCell>
        <mxCell id="WIyWlLk6GJQsqaUBKTNV-8" value="Yes" style="rounded=0;html=1;jettySize=auto;orthogonalLoop=1;fontSize=11;endArrow=block;endFill=0;endSize=8;strokeWidth=1;shadow=0;labelBackgroundColor=none;edgeStyle=orthogonalEdgeStyle;labelPosition=left;verticalLabelPosition=top;align=right;verticalAlign=bottom;" parent="WIyWlLk6GJQsqaUBKTNV-1" source="WIyWlLk6GJQsqaUBKTNV-10" edge="1">
          <mxGeometry x="0.3333" y="20" relative="1" as="geometry">
            <mxPoint as="offset" />
            <mxPoint x="247" y="539" as="targetPoint" />
          </mxGeometry>
        </mxCell>
        <mxCell id="WIyWlLk6GJQsqaUBKTNV-9" value="NO" style="edgeStyle=orthogonalEdgeStyle;rounded=0;html=1;jettySize=auto;orthogonalLoop=1;fontSize=11;endArrow=block;endFill=0;endSize=8;strokeWidth=1;shadow=0;labelBackgroundColor=none;entryX=0.5;entryY=1;entryDx=0;entryDy=0;exitX=1;exitY=0.5;exitDx=0;exitDy=0;" parent="WIyWlLk6GJQsqaUBKTNV-1" source="WIyWlLk6GJQsqaUBKTNV-10" target="UX_ttumUYhpTHQOnJO9W-7" edge="1">
          <mxGeometry y="10" relative="1" as="geometry">
            <mxPoint as="offset" />
            <mxPoint x="347" y="330" as="targetPoint" />
            <Array as="points">
              <mxPoint x="400" y="443" />
            </Array>
          </mxGeometry>
        </mxCell>
        <mxCell id="WIyWlLk6GJQsqaUBKTNV-10" value="Able to create all downstream resources" style="rhombus;whiteSpace=wrap;html=1;shadow=0;fontFamily=Helvetica;fontSize=12;align=center;strokeWidth=1;spacing=6;spacingTop=-4;fillColor=#f5f5f5;fontColor=#333333;strokeColor=#666666;" parent="WIyWlLk6GJQsqaUBKTNV-1" vertex="1">
          <mxGeometry x="189" y="388" width="117" height="109" as="geometry" />
        </mxCell>
        <mxCell id="UX_ttumUYhpTHQOnJO9W-2" style="edgeStyle=orthogonalEdgeStyle;rounded=0;orthogonalLoop=1;jettySize=auto;html=1;entryX=0;entryY=0.5;entryDx=0;entryDy=0;" edge="1" parent="WIyWlLk6GJQsqaUBKTNV-1" source="UX_ttumUYhpTHQOnJO9W-0" target="WIyWlLk6GJQsqaUBKTNV-3">
          <mxGeometry relative="1" as="geometry">
            <mxPoint x="100" y="220" as="targetPoint" />
          </mxGeometry>
        </mxCell>
        <mxCell id="UX_ttumUYhpTHQOnJO9W-4" value="Create Slice" style="edgeLabel;html=1;align=center;verticalAlign=middle;resizable=0;points=[];" vertex="1" connectable="0" parent="UX_ttumUYhpTHQOnJO9W-2">
          <mxGeometry x="-0.0385" y="1" relative="1" as="geometry">
            <mxPoint as="offset" />
          </mxGeometry>
        </mxCell>
        <mxCell id="UX_ttumUYhpTHQOnJO9W-0" value="" style="shape=actor;whiteSpace=wrap;html=1;" vertex="1" parent="WIyWlLk6GJQsqaUBKTNV-1">
          <mxGeometry x="40" y="70" width="40" height="60" as="geometry" />
        </mxCell>
        <mxCell id="UX_ttumUYhpTHQOnJO9W-7" value="&lt;h3&gt;&lt;b&gt;Error&lt;/b&gt;&lt;/h3&gt;" style="shape=sumEllipse;perimeter=ellipsePerimeter;whiteSpace=wrap;html=1;backgroundOutline=1;labelPosition=center;verticalLabelPosition=middle;align=center;verticalAlign=middle;labelBackgroundColor=none;fillColor=#a20025;fontColor=#f8f7f7;strokeColor=#6F0000;spacingBottom=0;spacing=2;spacingTop=0;" vertex="1" parent="WIyWlLk6GJQsqaUBKTNV-1">
          <mxGeometry x="370" y="180" width="60" height="60" as="geometry" />
        </mxCell>
        <mxCell id="UX_ttumUYhpTHQOnJO9W-14" value="" style="rounded=0;html=1;jettySize=auto;orthogonalLoop=1;fontSize=11;endArrow=block;endFill=0;endSize=8;strokeWidth=1;shadow=0;labelBackgroundColor=none;edgeStyle=orthogonalEdgeStyle;" edge="1" parent="WIyWlLk6GJQsqaUBKTNV-1" target="UX_ttumUYhpTHQOnJO9W-13">
          <mxGeometry y="20" relative="1" as="geometry">
            <mxPoint as="offset" />
            <mxPoint x="247" y="250" as="sourcePoint" />
            <mxPoint x="247" y="346" as="targetPoint" />
          </mxGeometry>
        </mxCell>
        <mxCell id="UX_ttumUYhpTHQOnJO9W-13" value="&lt;b&gt;Feasibility Checked&lt;/b&gt;" style="ellipse;whiteSpace=wrap;html=1;fillColor=#dae8fc;strokeColor=#6c8ebf;" vertex="1" parent="WIyWlLk6GJQsqaUBKTNV-1">
          <mxGeometry x="201" y="290" width="93" height="50" as="geometry" />
        </mxCell>
        <mxCell id="UX_ttumUYhpTHQOnJO9W-19" value="" style="edgeStyle=orthogonalEdgeStyle;rounded=0;orthogonalLoop=1;jettySize=auto;html=1;" edge="1" parent="WIyWlLk6GJQsqaUBKTNV-1" source="UX_ttumUYhpTHQOnJO9W-15" target="UX_ttumUYhpTHQOnJO9W-18">
          <mxGeometry relative="1" as="geometry" />
        </mxCell>
        <mxCell id="UX_ttumUYhpTHQOnJO9W-46" value="&lt;b&gt;Activate&lt;/b&gt;" style="edgeLabel;html=1;align=center;verticalAlign=middle;resizable=0;points=[];" vertex="1" connectable="0" parent="UX_ttumUYhpTHQOnJO9W-19">
          <mxGeometry x="-0.2923" relative="1" as="geometry">
            <mxPoint as="offset" />
          </mxGeometry>
        </mxCell>
        <mxCell id="UX_ttumUYhpTHQOnJO9W-15" value="&lt;b&gt;Designed/ Reserved&lt;/b&gt;" style="ellipse;whiteSpace=wrap;html=1;fillColor=#fff2cc;strokeColor=#d6b656;" vertex="1" parent="WIyWlLk6GJQsqaUBKTNV-1">
          <mxGeometry x="204" y="539" width="93" height="50" as="geometry" />
        </mxCell>
        <mxCell id="UX_ttumUYhpTHQOnJO9W-20" style="edgeStyle=orthogonalEdgeStyle;rounded=0;orthogonalLoop=1;jettySize=auto;html=1;entryX=0;entryY=0.5;entryDx=0;entryDy=0;exitX=0;exitY=0.5;exitDx=0;exitDy=0;" edge="1" parent="WIyWlLk6GJQsqaUBKTNV-1" source="UX_ttumUYhpTHQOnJO9W-18" target="UX_ttumUYhpTHQOnJO9W-15">
          <mxGeometry relative="1" as="geometry">
            <mxPoint x="200" y="570" as="targetPoint" />
          </mxGeometry>
        </mxCell>
        <mxCell id="UX_ttumUYhpTHQOnJO9W-29" value="Yes" style="edgeLabel;html=1;align=center;verticalAlign=middle;resizable=0;points=[];" vertex="1" connectable="0" parent="UX_ttumUYhpTHQOnJO9W-20">
          <mxGeometry x="0.0169" y="-2" relative="1" as="geometry">
            <mxPoint y="1" as="offset" />
          </mxGeometry>
        </mxCell>
        <mxCell id="UX_ttumUYhpTHQOnJO9W-21" value="" style="edgeStyle=orthogonalEdgeStyle;rounded=0;orthogonalLoop=1;jettySize=auto;html=1;entryX=0.5;entryY=0;entryDx=0;entryDy=0;" edge="1" parent="WIyWlLk6GJQsqaUBKTNV-1" source="UX_ttumUYhpTHQOnJO9W-18" target="UX_ttumUYhpTHQOnJO9W-22">
          <mxGeometry relative="1" as="geometry">
            <mxPoint x="190" y="740" as="targetPoint" />
          </mxGeometry>
        </mxCell>
        <mxCell id="UX_ttumUYhpTHQOnJO9W-18" value="Has Error" style="rhombus;whiteSpace=wrap;html=1;fillColor=#f5f5f5;strokeColor=#666666;fontColor=#333333;" vertex="1" parent="WIyWlLk6GJQsqaUBKTNV-1">
          <mxGeometry x="210.5" y="654" width="80" height="80" as="geometry" />
        </mxCell>
        <mxCell id="UX_ttumUYhpTHQOnJO9W-24" value="" style="edgeStyle=orthogonalEdgeStyle;rounded=0;orthogonalLoop=1;jettySize=auto;html=1;" edge="1" parent="WIyWlLk6GJQsqaUBKTNV-1" source="UX_ttumUYhpTHQOnJO9W-22" target="UX_ttumUYhpTHQOnJO9W-23">
          <mxGeometry relative="1" as="geometry" />
        </mxCell>
        <mxCell id="UX_ttumUYhpTHQOnJO9W-25" value="&lt;b&gt;Deactivate&lt;/b&gt;" style="edgeLabel;html=1;align=center;verticalAlign=middle;resizable=0;points=[];" vertex="1" connectable="0" parent="UX_ttumUYhpTHQOnJO9W-24">
          <mxGeometry x="0.1214" relative="1" as="geometry">
            <mxPoint as="offset" />
          </mxGeometry>
        </mxCell>
        <mxCell id="UX_ttumUYhpTHQOnJO9W-27" value="" style="edgeStyle=orthogonalEdgeStyle;rounded=0;orthogonalLoop=1;jettySize=auto;html=1;" edge="1" parent="WIyWlLk6GJQsqaUBKTNV-1" source="UX_ttumUYhpTHQOnJO9W-22" target="UX_ttumUYhpTHQOnJO9W-26">
          <mxGeometry relative="1" as="geometry" />
        </mxCell>
        <mxCell id="UX_ttumUYhpTHQOnJO9W-28" value="&lt;b&gt;Terminate&lt;/b&gt;" style="edgeLabel;html=1;align=center;verticalAlign=middle;resizable=0;points=[];" vertex="1" connectable="0" parent="UX_ttumUYhpTHQOnJO9W-27">
          <mxGeometry x="-0.1692" y="1" relative="1" as="geometry">
            <mxPoint as="offset" />
          </mxGeometry>
        </mxCell>
        <mxCell id="UX_ttumUYhpTHQOnJO9W-22" value="&lt;b&gt;Activated&lt;/b&gt;" style="ellipse;whiteSpace=wrap;html=1;fillColor=#dae8fc;strokeColor=#6c8ebf;" vertex="1" parent="WIyWlLk6GJQsqaUBKTNV-1">
          <mxGeometry x="203.5" y="765" width="93" height="50" as="geometry" />
        </mxCell>
        <mxCell id="UX_ttumUYhpTHQOnJO9W-31" value="" style="edgeStyle=orthogonalEdgeStyle;rounded=0;orthogonalLoop=1;jettySize=auto;html=1;entryX=0.5;entryY=0;entryDx=0;entryDy=0;exitX=0.5;exitY=0;exitDx=0;exitDy=0;curved=1;" edge="1" parent="WIyWlLk6GJQsqaUBKTNV-1" source="UX_ttumUYhpTHQOnJO9W-23" target="UX_ttumUYhpTHQOnJO9W-22">
          <mxGeometry relative="1" as="geometry">
            <mxPoint x="412" y="280" as="targetPoint" />
          </mxGeometry>
        </mxCell>
        <mxCell id="UX_ttumUYhpTHQOnJO9W-40" value="Yes" style="edgeLabel;html=1;align=center;verticalAlign=middle;resizable=0;points=[];" vertex="1" connectable="0" parent="UX_ttumUYhpTHQOnJO9W-31">
          <mxGeometry x="0.0228" y="2" relative="1" as="geometry">
            <mxPoint as="offset" />
          </mxGeometry>
        </mxCell>
        <mxCell id="UX_ttumUYhpTHQOnJO9W-42" value="" style="edgeStyle=orthogonalEdgeStyle;rounded=0;orthogonalLoop=1;jettySize=auto;html=1;entryX=0;entryY=0.5;entryDx=0;entryDy=0;" edge="1" parent="WIyWlLk6GJQsqaUBKTNV-1" source="UX_ttumUYhpTHQOnJO9W-23" target="UX_ttumUYhpTHQOnJO9W-43">
          <mxGeometry relative="1" as="geometry">
            <mxPoint x="538" y="790" as="targetPoint" />
          </mxGeometry>
        </mxCell>
        <mxCell id="UX_ttumUYhpTHQOnJO9W-51" value="NO" style="edgeLabel;html=1;align=center;verticalAlign=middle;resizable=0;points=[];" vertex="1" connectable="0" parent="UX_ttumUYhpTHQOnJO9W-42">
          <mxGeometry x="0.0909" y="-2" relative="1" as="geometry">
            <mxPoint as="offset" />
          </mxGeometry>
        </mxCell>
        <mxCell id="UX_ttumUYhpTHQOnJO9W-23" value="Has Error" style="rhombus;whiteSpace=wrap;html=1;fillColor=#f5f5f5;strokeColor=#666666;fontColor=#333333;" vertex="1" parent="WIyWlLk6GJQsqaUBKTNV-1">
          <mxGeometry x="404" y="750" width="80" height="80" as="geometry" />
        </mxCell>
        <mxCell id="UX_ttumUYhpTHQOnJO9W-33" value="" style="edgeStyle=orthogonalEdgeStyle;rounded=0;orthogonalLoop=1;jettySize=auto;html=1;" edge="1" parent="WIyWlLk6GJQsqaUBKTNV-1" source="UX_ttumUYhpTHQOnJO9W-26" target="UX_ttumUYhpTHQOnJO9W-32">
          <mxGeometry relative="1" as="geometry" />
        </mxCell>
        <mxCell id="UX_ttumUYhpTHQOnJO9W-36" value="NO" style="edgeLabel;html=1;align=center;verticalAlign=middle;resizable=0;points=[];" vertex="1" connectable="0" parent="UX_ttumUYhpTHQOnJO9W-33">
          <mxGeometry x="-0.3" relative="1" as="geometry">
            <mxPoint as="offset" />
          </mxGeometry>
        </mxCell>
        <mxCell id="UX_ttumUYhpTHQOnJO9W-38" value="" style="edgeStyle=orthogonalEdgeStyle;rounded=0;orthogonalLoop=1;jettySize=auto;html=1;entryX=0;entryY=0.5;entryDx=0;entryDy=0;exitX=0;exitY=0.5;exitDx=0;exitDy=0;" edge="1" parent="WIyWlLk6GJQsqaUBKTNV-1" source="UX_ttumUYhpTHQOnJO9W-26" target="UX_ttumUYhpTHQOnJO9W-22">
          <mxGeometry relative="1" as="geometry">
            <mxPoint x="131" y="920" as="targetPoint" />
          </mxGeometry>
        </mxCell>
        <mxCell id="UX_ttumUYhpTHQOnJO9W-39" value="Yes" style="edgeLabel;html=1;align=center;verticalAlign=middle;resizable=0;points=[];" vertex="1" connectable="0" parent="UX_ttumUYhpTHQOnJO9W-38">
          <mxGeometry x="0.1501" relative="1" as="geometry">
            <mxPoint x="1" as="offset" />
          </mxGeometry>
        </mxCell>
        <mxCell id="UX_ttumUYhpTHQOnJO9W-26" value="Has Error" style="rhombus;whiteSpace=wrap;html=1;fillColor=#f5f5f5;strokeColor=#666666;fontColor=#333333;" vertex="1" parent="WIyWlLk6GJQsqaUBKTNV-1">
          <mxGeometry x="210" y="880" width="80" height="80" as="geometry" />
        </mxCell>
        <mxCell id="UX_ttumUYhpTHQOnJO9W-32" value="&lt;b&gt;Terminated&lt;/b&gt;" style="ellipse;whiteSpace=wrap;html=1;fillColor=#f8cecc;strokeColor=#b85450;" vertex="1" parent="WIyWlLk6GJQsqaUBKTNV-1">
          <mxGeometry x="380" y="895" width="93" height="50" as="geometry" />
        </mxCell>
        <mxCell id="UX_ttumUYhpTHQOnJO9W-53" value="" style="edgeStyle=orthogonalEdgeStyle;rounded=0;orthogonalLoop=1;jettySize=auto;html=1;" edge="1" parent="WIyWlLk6GJQsqaUBKTNV-1" source="UX_ttumUYhpTHQOnJO9W-43" target="UX_ttumUYhpTHQOnJO9W-52">
          <mxGeometry relative="1" as="geometry" />
        </mxCell>
        <mxCell id="UX_ttumUYhpTHQOnJO9W-57" value="&lt;b&gt;Activate&lt;/b&gt;" style="edgeLabel;html=1;align=center;verticalAlign=middle;resizable=0;points=[];" vertex="1" connectable="0" parent="UX_ttumUYhpTHQOnJO9W-53">
          <mxGeometry x="-0.0154" y="1" relative="1" as="geometry">
            <mxPoint x="1" as="offset" />
          </mxGeometry>
        </mxCell>
        <mxCell id="UX_ttumUYhpTHQOnJO9W-43" value="&lt;b&gt;Deactivated&lt;/b&gt;" style="ellipse;whiteSpace=wrap;html=1;fillColor=#ffe6cc;strokeColor=#d79b00;" vertex="1" parent="WIyWlLk6GJQsqaUBKTNV-1">
          <mxGeometry x="550" y="765" width="93" height="50" as="geometry" />
        </mxCell>
        <mxCell id="UX_ttumUYhpTHQOnJO9W-55" value="" style="edgeStyle=orthogonalEdgeStyle;rounded=0;orthogonalLoop=1;jettySize=auto;html=1;entryX=1;entryY=0.5;entryDx=0;entryDy=0;exitX=1;exitY=0.5;exitDx=0;exitDy=0;" edge="1" parent="WIyWlLk6GJQsqaUBKTNV-1" source="UX_ttumUYhpTHQOnJO9W-52" target="UX_ttumUYhpTHQOnJO9W-43">
          <mxGeometry relative="1" as="geometry">
            <mxPoint x="716.5" y="660" as="targetPoint" />
          </mxGeometry>
        </mxCell>
        <mxCell id="UX_ttumUYhpTHQOnJO9W-56" value="YES" style="edgeLabel;html=1;align=center;verticalAlign=middle;resizable=0;points=[];" vertex="1" connectable="0" parent="UX_ttumUYhpTHQOnJO9W-55">
          <mxGeometry x="-0.1677" y="2" relative="1" as="geometry">
            <mxPoint as="offset" />
          </mxGeometry>
        </mxCell>
        <mxCell id="UX_ttumUYhpTHQOnJO9W-52" value="Has Error" style="rhombus;whiteSpace=wrap;html=1;fillColor=#f5f5f5;strokeColor=#666666;fontColor=#333333;" vertex="1" parent="WIyWlLk6GJQsqaUBKTNV-1">
          <mxGeometry x="556.5" y="620" width="80" height="80" as="geometry" />
        </mxCell>
      </root>
    </mxGraphModel>
  </diagram>
</mxfile>
